<svg width="24" height="24" viewBox="0 0 24 24" fill="none" xmlns="http://www.w3.org/2000/svg">
<path d="M15.2499 11.8C15.7395 11.5018 16.1527 11.0934 16.4566 10.6073C16.7604 10.1212 16.9465 9.57077 16.9999 9C17.0092 8.48388 16.9167 7.971 16.7277 7.49063C16.5387 7.01027 16.257 6.57184 15.8985 6.20039C15.5401 5.82894 15.1119 5.53174 14.6386 5.32578C14.1653 5.11981 13.656 5.00911 13.1399 5H6.6499V19H13.6499C14.1411 18.9948 14.6264 18.8929 15.0781 18.7001C15.5299 18.5073 15.9392 18.2274 16.2828 17.8764C16.6264 17.5253 16.8975 17.1101 17.0806 16.6543C17.2637 16.1985 17.3552 15.7112 17.3499 15.22V15.1C17.3502 14.4071 17.1528 13.7285 16.7808 13.144C16.4088 12.5594 15.8777 12.0931 15.2499 11.8ZM8.6499 7H12.8499C13.2761 6.98681 13.6961 7.10428 14.0536 7.33665C14.4111 7.56902 14.6889 7.90517 14.8499 8.3C15.0128 8.82779 14.9601 9.39859 14.7034 9.88765C14.4467 10.3767 14.0068 10.7443 13.4799 10.91C13.2753 10.97 13.0631 11.0003 12.8499 11H8.6499V7ZM13.2499 17H8.6499V13H13.2499C13.6761 12.9868 14.0961 13.1043 14.4536 13.3367C14.8111 13.569 15.0889 13.9052 15.2499 14.3C15.4128 14.8278 15.3601 15.3986 15.1034 15.8877C14.8467 16.3767 14.4068 16.7443 13.8799 16.91C13.6753 16.97 13.4631 17.0003 13.2499 17Z" fill="#545454"/>
</svg>
