<svg width="24" height="24" viewBox="0 0 24 24" fill="none" xmlns="http://www.w3.org/2000/svg">
<path d="M7.68213 4.99956C6.74239 4.98436 5.82582 5.2917 5.0852 5.87036C4.34459 6.44902 3.82468 7.26404 3.61213 8.17956C3.39801 9.21854 3.60537 10.3 4.1886 11.1861C4.77183 12.0722 5.68317 12.6904 6.72213 12.9046L6.74913 12.9096C7.01835 12.9695 7.29333 12.9997 7.56913 12.9996V18.9996H9.56913V6.99956H11.5691V18.9996H13.5691V6.99956H15.5691V4.99956H7.68213ZM5.53213 8.99956C5.53213 8.46913 5.74285 7.96042 6.11792 7.58535C6.49299 7.21028 7.0017 6.99956 7.53213 6.99956V10.9996C7.0017 10.9996 6.49299 10.7888 6.11792 10.4138C5.74285 10.0387 5.53213 9.52999 5.53213 8.99956ZM20.4721 17.4906C20.4721 17.7872 20.3842 18.0772 20.2193 18.3239C20.0545 18.5706 19.8202 18.7629 19.5462 18.8764C19.2721 18.9899 18.9705 19.0196 18.6795 18.9617C18.3885 18.9039 18.1213 18.761 17.9115 18.5512C17.7017 18.3414 17.5588 18.0742 17.501 17.7832C17.4431 17.4922 17.4728 17.1906 17.5863 16.9165C17.6998 16.6424 17.8921 16.4082 18.1388 16.2434C18.3855 16.0785 18.6755 15.9906 18.9721 15.9906C19.37 15.9906 19.7515 16.1486 20.0328 16.4299C20.3141 16.7112 20.4721 17.0927 20.4721 17.4906ZM20.4721 13.4906C20.4721 13.7872 20.3842 14.0772 20.2193 14.3239C20.0545 14.5706 19.8202 14.7629 19.5462 14.8764C19.2721 14.9899 18.9705 15.0196 18.6795 14.9617C18.3885 14.9039 18.1213 14.761 17.9115 14.5512C17.7017 14.3414 17.5588 14.0742 17.501 13.7832C17.4431 13.4922 17.4728 13.1906 17.5863 12.9165C17.6998 12.6424 17.8921 12.4082 18.1388 12.2434C18.3855 12.0785 18.6755 11.9906 18.9721 11.9906C19.37 11.9906 19.7515 12.1486 20.0328 12.4299C20.3141 12.7112 20.4721 13.0927 20.4721 13.4906ZM20.4721 9.49056C20.4721 9.78723 20.3842 10.0772 20.2193 10.3239C20.0545 10.5706 19.8202 10.7629 19.5462 10.8764C19.2721 10.9899 18.9705 11.0196 18.6795 10.9617C18.3885 10.9039 18.1213 10.761 17.9115 10.5512C17.7017 10.3414 17.5588 10.0742 17.501 9.7832C17.4431 9.49223 17.4728 9.19063 17.5863 8.91654C17.6998 8.64245 17.8921 8.40818 18.1388 8.24336C18.3855 8.07854 18.6755 7.99056 18.9721 7.99056C19.37 7.99056 19.7515 8.1486 20.0328 8.4299C20.3141 8.71121 20.4721 9.09274 20.4721 9.49056Z" fill="#545454"/>
</svg>
