<svg width="440" height="417" viewBox="0 0 440 417" fill="none" xmlns="http://www.w3.org/2000/svg">
<path d="M217.027 363.054C301.517 363.054 370.014 294.557 370.014 209.766C370.014 124.974 301.517 56.4766 217.027 56.4766C132.537 56.4766 64.04 124.974 64.04 209.766C64.04 294.557 132.537 363.054 217.027 363.054Z" fill="#E2E8F0"/>
<path d="M104.478 110.489H322.04C330.791 110.489 337.429 117.128 337.429 125.879V263.778C337.429 272.529 330.791 279.167 322.04 279.167H104.478C95.7274 279.167 89.0889 272.529 89.0889 263.778V125.879C89.0889 117.128 96.3309 110.489 104.478 110.489Z" fill="url(#paint0_linear_866_18980)"/>
<path d="M341.652 198.902V266.796C341.652 275.547 334.712 282.789 325.66 282.789H102.063C93.3123 282.789 86.0703 275.547 86.0703 266.796V193.169" stroke="#1676EE" stroke-width="9.0525" stroke-linecap="round" stroke-linejoin="round"/>
<path d="M322.642 160.88H252.032C245.092 160.88 238.453 163.294 233.324 167.518L214.917 182.606C209.787 186.83 203.149 189.244 196.208 189.244H116.546C108.399 189.244 101.761 195.883 101.761 204.03C101.761 204.634 101.761 205.539 102.062 206.142L116.848 283.994C118.055 291.236 124.09 296.667 131.634 296.667H302.123C309.365 296.667 315.701 291.538 316.908 284.296L337.427 177.778C338.936 169.631 333.505 162.389 325.357 160.88C324.15 160.88 323.245 160.88 322.642 160.88Z" fill="white"/>
<g filter="url(#filter0_d_866_18980)">
<path d="M354.326 140.062H262.594C253.542 140.062 245.093 143.079 238.153 148.812L214.013 168.426C207.374 173.858 198.623 177.177 189.571 177.177H85.769C75.2078 177.177 66.7588 185.927 66.7588 196.187C66.7588 197.092 66.7588 197.997 67.0605 198.903L86.0708 300.592C87.5795 310.248 95.7268 317.189 105.081 317.189H327.169C336.825 317.189 344.67 310.55 346.179 300.894L373.035 161.788C374.845 151.226 367.905 141.872 357.344 139.76C356.439 140.062 355.232 140.062 354.326 140.062Z" fill="url(#paint1_linear_866_18980)"/>
</g>
<path d="M176.893 245.373C182.325 245.373 186.851 240.846 186.851 235.415C186.851 229.983 182.325 225.457 176.893 225.457C171.462 225.457 166.936 229.983 166.936 235.415C166.936 240.846 171.462 245.373 176.893 245.373Z" fill="#64748B"/>
<path d="M254.447 245.069C259.878 245.069 264.405 240.543 264.405 235.111C264.405 229.68 259.878 225.153 254.447 225.153C249.016 225.153 244.489 229.68 244.489 235.111C244.489 240.844 249.016 245.069 254.447 245.069Z" fill="#64748B"/>
<path d="M369.11 310.249C367.903 315.379 366.092 320.81 363.98 325.336C358.247 336.501 349.194 345.252 338.029 350.985C326.563 356.718 312.984 359.132 299.405 356.115C267.42 349.476 246.901 318.094 253.539 286.109C260.178 254.123 291.258 233.303 323.244 240.243C334.71 242.657 344.668 248.39 353.117 256.236C367.299 270.418 373.334 290.937 369.11 310.249Z" fill="url(#paint2_linear_866_18980)"/>
<path d="M330.183 293.05H316.605V279.472C316.605 276.756 314.492 274.342 311.475 274.342C308.759 274.342 306.345 276.454 306.345 279.472V293.05H292.766C290.051 293.05 287.637 295.163 287.637 298.18C287.637 301.198 289.749 303.31 292.766 303.31H306.345V316.889C306.345 319.604 308.457 322.018 311.475 322.018C314.191 322.018 316.605 319.906 316.605 316.889V303.31H330.183C332.899 303.31 335.313 301.198 335.313 298.18C335.313 295.163 332.899 293.05 330.183 293.05Z" fill="white"/>
<path d="M203.451 173.858C192.588 152.735 190.174 127.388 197.416 104.455C204.356 81.5222 220.952 61.9084 241.471 50.7437C247.808 47.4244 255.05 44.7087 262.292 44.4069C269.534 44.1052 277.38 46.5192 282.208 52.5542C287.036 57.9857 287.941 67.0382 284.018 73.0732C279.794 78.8064 271.345 81.2204 264.404 79.4099C253.24 77.2976 244.187 68.5469 241.471 57.9857C238.756 47.4244 242.377 35.0527 250.826 28.1124C256.257 23.2844 263.801 20.5687 270.741 18.4564C304.537 8.49868 341.351 7.29168 375.75 14.8354" stroke="#CBD5E1" stroke-width="6.035" stroke-miterlimit="10" stroke-dasharray="12.07 12.07"/>
<path d="M225.173 255.934H206.465V260.46H225.173V255.934Z" fill="#64748B"/>
<path d="M393.853 6.9896C393.551 11.5158 393.249 15.7403 389.93 16.6456C386.611 17.5508 385.102 14.5333 382.99 10.3088C380.877 6.3861 382.084 2.1616 385.705 1.25635C389.025 0.351103 394.456 1.5581 393.853 6.9896Z" fill="#CBD5E1"/>
<path d="M390.232 28.7181C391.137 23.2866 392.043 20.2691 389.025 18.7603C385.706 17.2516 383.594 19.9673 379.973 23.5883C376.955 26.9076 378.766 31.7356 381.783 33.2443C385.404 35.0548 389.327 33.2443 390.232 28.7181Z" fill="#CBD5E1"/>
<path d="M394.456 18.7569C394.154 20.8692 392.646 22.3779 390.533 22.6797C389.628 22.6797 388.723 22.6797 387.516 22.6797C383.291 22.0762 379.972 19.3604 380.274 16.6447C380.576 13.9289 384.498 12.4202 389.326 13.0237C390.232 13.0237 391.137 13.3254 391.74 13.6272C393.551 14.2307 394.758 16.3429 394.456 18.7569C394.456 18.7569 394.456 18.4552 394.456 18.7569Z" fill="#64748B"/>
<path d="M57.7051 103.549C57.7051 98.4194 57.7051 93.2896 61.3261 91.7809C65.2488 90.2721 67.3611 93.8931 70.3786 99.0229C73.0943 103.549 71.8873 108.377 67.9646 109.886C64.6453 111.395 57.7051 110.489 57.7051 103.549Z" fill="#CBD5E1"/>
<path d="M59.8154 78.201C59.2119 84.5378 58.3066 88.1588 62.2294 89.6675C66.1521 91.1763 68.2644 87.857 72.1871 83.029C75.2046 78.8045 73.0924 73.373 69.1696 71.8643C65.2469 70.3555 60.4189 73.0713 59.8154 78.201Z" fill="#CBD5E1"/>
<path d="M56.4971 90.274C56.4971 87.86 58.3076 86.0495 60.4198 85.7478C61.3251 85.446 62.5321 85.446 63.7391 85.7478C68.5671 86.0495 72.7916 88.7653 72.4898 91.7828C72.1881 94.8003 68.2653 96.9125 63.1356 96.309C62.2303 96.309 61.3251 96.0073 60.4198 95.7055C58.0058 95.4038 56.4971 92.9898 56.4971 90.274Z" fill="#64748B"/>
<path d="M77.0195 91.1777C108.703 91.1777 167.243 109.584 168.148 177.176" stroke="#CBD5E1" stroke-width="6.035" stroke-miterlimit="10" stroke-dasharray="12.07 12.07"/>
<defs>
<filter id="filter0_d_866_18980" x="0.37381" y="106.567" width="439.333" height="310.199" filterUnits="userSpaceOnUse" color-interpolation-filters="sRGB">
<feFlood flood-opacity="0" result="BackgroundImageFix"/>
<feColorMatrix in="SourceAlpha" type="matrix" values="0 0 0 0 0 0 0 0 0 0 0 0 0 0 0 0 0 0 127 0" result="hardAlpha"/>
<feOffset dy="33.1925"/>
<feGaussianBlur stdDeviation="33.1925"/>
<feColorMatrix type="matrix" values="0 0 0 0 0.397708 0 0 0 0 0.47749 0 0 0 0 0.575 0 0 0 0.27 0"/>
<feBlend mode="normal" in2="BackgroundImageFix" result="effect1_dropShadow_866_18980"/>
<feBlend mode="normal" in="SourceGraphic" in2="effect1_dropShadow_866_18980" result="shape"/>
</filter>
<linearGradient id="paint0_linear_866_18980" x1="213.279" y1="116.349" x2="213.279" y2="211.026" gradientUnits="userSpaceOnUse">
<stop stop-color="#B0BACC"/>
<stop offset="1" stop-color="#969EAE"/>
</linearGradient>
<linearGradient id="paint1_linear_866_18980" x1="219.94" y1="135.656" x2="219.94" y2="319.102" gradientUnits="userSpaceOnUse">
<stop stop-color="#FDFEFF"/>
<stop offset="0.9964" stop-color="#ECF0F5"/>
</linearGradient>
<linearGradient id="paint2_linear_866_18980" x1="252.238" y1="298.177" x2="370.455" y2="298.177" gradientUnits="userSpaceOnUse">
<stop stop-color="#B0BACC"/>
<stop offset="1" stop-color="#969EAE"/>
</linearGradient>
</defs>
</svg>
