<svg width="20" height="20" viewBox="0 0 20 20" fill="none" xmlns="http://www.w3.org/2000/svg">
<g id="user-01">
<path id="Icon" d="M16.6667 17.5C16.6667 16.337 16.6667 15.7555 16.5232 15.2824C16.2 14.217 15.3663 13.3834 14.301 13.0602C13.8278 12.9167 13.2463 12.9167 12.0834 12.9167H7.91671C6.75374 12.9167 6.17225 12.9167 5.69909 13.0602C4.63375 13.3834 3.80007 14.217 3.47691 15.2824C3.33337 15.7555 3.33337 16.337 3.33337 17.5M13.75 6.25C13.75 8.32107 12.0711 10 10 10C7.92897 10 6.25004 8.32107 6.25004 6.25C6.25004 4.17893 7.92897 2.5 10 2.5C12.0711 2.5 13.75 4.17893 13.75 6.25Z" stroke="#828282" style="stroke:#828282;stroke:color(display-p3 0.5098 0.5098 0.5098);stroke-opacity:1;" stroke-width="1.5" stroke-linecap="round" stroke-linejoin="round"/>
</g>
</svg>
