<svg width="16" height="16" viewBox="0 0 16 16" fill="none" xmlns="http://www.w3.org/2000/svg">
<g id="pencil-square">
<g id="Vector">
<path d="M15.502 1.94039C15.5954 2.03412 15.6479 2.16106 15.6479 2.29339C15.6479 2.42573 15.5954 2.55267 15.502 2.64639L14.459 3.69039L12.459 1.69039L13.502 0.646393C13.5958 0.552658 13.7229 0.5 13.8555 0.5C13.9881 0.5 14.1152 0.552658 14.209 0.646393L15.502 1.93939V1.94039ZM13.752 4.39639L11.752 2.39639L4.939 9.21039C4.88396 9.26542 4.84253 9.33253 4.818 9.40639L4.013 11.8204C3.9984 11.8644 3.99633 11.9116 4.00701 11.9567C4.0177 12.0018 4.04072 12.0431 4.07351 12.0759C4.10629 12.1087 4.14755 12.1317 4.19267 12.1424C4.23779 12.1531 4.28499 12.151 4.329 12.1364L6.743 11.3314C6.81676 11.3072 6.88387 11.2661 6.939 11.2114L13.752 4.39639Z" fill="#334155"/>
<path fill-rule="evenodd" clip-rule="evenodd" d="M1 13.5004C1 13.8982 1.15804 14.2797 1.43934 14.5611C1.72064 14.8424 2.10218 15.0004 2.5 15.0004H13.5C13.8978 15.0004 14.2794 14.8424 14.5607 14.5611C14.842 14.2797 15 13.8982 15 13.5004V7.50039C15 7.36778 14.9473 7.24061 14.8536 7.14684C14.7598 7.05307 14.6326 7.00039 14.5 7.00039C14.3674 7.00039 14.2402 7.05307 14.1464 7.14684C14.0527 7.24061 14 7.36778 14 7.50039V13.5004C14 13.633 13.9473 13.7602 13.8536 13.8539C13.7598 13.9477 13.6326 14.0004 13.5 14.0004H2.5C2.36739 14.0004 2.24021 13.9477 2.14645 13.8539C2.05268 13.7602 2 13.633 2 13.5004V2.50039C2 2.36778 2.05268 2.24061 2.14645 2.14684C2.24021 2.05307 2.36739 2.00039 2.5 2.00039H9C9.13261 2.00039 9.25979 1.94771 9.35355 1.85395C9.44732 1.76018 9.5 1.633 9.5 1.50039C9.5 1.36779 9.44732 1.24061 9.35355 1.14684C9.25979 1.05307 9.13261 1.00039 9 1.00039H2.5C2.10218 1.00039 1.72064 1.15843 1.43934 1.43973C1.15804 1.72104 1 2.10257 1 2.50039V13.5004Z" fill="#334155"/>
</g>
</g>
</svg>
