<svg width="20" height="20" viewBox="0 0 20 20" fill="none" xmlns="http://www.w3.org/2000/svg">
<g id="book-open-01">
<path id="Icon" d="M9.99996 17.5L9.91658 17.3749C9.33771 16.5066 9.04828 16.0725 8.66588 15.7582C8.32734 15.4799 7.93726 15.2712 7.51796 15.1438C7.04434 15 6.52255 15 5.47898 15H4.33329C3.39987 15 2.93316 15 2.57664 14.8183C2.26304 14.6586 2.00807 14.4036 1.84828 14.09C1.66663 13.7335 1.66663 13.2668 1.66663 12.3333V5.16667C1.66663 4.23325 1.66663 3.76654 1.84828 3.41002C2.00807 3.09641 2.26304 2.84144 2.57664 2.68166C2.93316 2.5 3.39987 2.5 4.33329 2.5H4.66663C6.53347 2.5 7.46689 2.5 8.17993 2.86331C8.80713 3.18289 9.31707 3.69282 9.63665 4.32003C9.99996 5.03307 9.99996 5.96649 9.99996 7.83333M9.99996 17.5V7.83333M9.99996 17.5L10.0833 17.3749C10.6622 16.5066 10.9516 16.0725 11.334 15.7582C11.6726 15.4799 12.0627 15.2712 12.482 15.1438C12.9556 15 13.4774 15 14.5209 15H15.6666C16.6 15 17.0668 15 17.4233 14.8183C17.7369 14.6586 17.9918 14.4036 18.1516 14.09C18.3333 13.7335 18.3333 13.2668 18.3333 12.3333V5.16667C18.3333 4.23325 18.3333 3.76654 18.1516 3.41002C17.9918 3.09641 17.7369 2.84144 17.4233 2.68166C17.0668 2.5 16.6 2.5 15.6666 2.5H15.3333C13.4665 2.5 12.533 2.5 11.82 2.86331C11.1928 3.18289 10.6828 3.69282 10.3633 4.32003C9.99996 5.03307 9.99996 5.96649 9.99996 7.83333" stroke="#7EB024" style="stroke:#7EB024;stroke:color(display-p3 0.4943 0.6888 0.1406);stroke-opacity:1;" stroke-width="1.5" stroke-linecap="round" stroke-linejoin="round"/>
</g>
</svg>
