<svg width="20" height="20" viewBox="0 0 20 20" fill="none" xmlns="http://www.w3.org/2000/svg">
<g id="share-04">
<path id="Icon" d="M15.8333 9L10 9.5M10 9.5L10.8333 4M10 9.5L17 2.5M8.33333 4.1665H6.5C5.09987 4.1665 4.3998 4.1665 3.86502 4.43899C3.39462 4.67867 3.01217 5.06112 2.77248 5.53153C2.5 6.06631 2.5 6.76637 2.5 8.1665V13.4998C2.5 14.9 2.5 15.6 2.77248 16.1348C3.01217 16.6052 3.39462 16.9877 3.86502 17.2274C4.3998 17.4998 5.09987 17.4998 6.5 17.4998H11.8333C13.2335 17.4998 13.9335 17.4998 14.4683 17.2274C14.9387 16.9877 15.3212 16.6052 15.5608 16.1348C15.8333 15.6 15.8333 14.9 15.8333 13.4998V11.6665" stroke="#828282" style="stroke:#828282;stroke:color(display-p3 0.5098 0.5098 0.5098);stroke-opacity:1;" stroke-width="1.5" stroke-linecap="round" stroke-linejoin="round"/>
</g>
</svg>
