<svg width="20" height="20" viewBox="0 0 20 20" fill="none" xmlns="http://www.w3.org/2000/svg">
<g id="thermometer-02">
<g id="Icon">
<path d="M12.0833 3.74984C12.0833 2.59924 11.1506 1.6665 10 1.6665C8.84941 1.6665 7.91667 2.59924 7.91667 3.74984V11.4646C6.91168 12.1374 6.25 13.283 6.25 14.5832C6.25 16.6542 7.92893 18.3332 10 18.3332C12.0711 18.3332 13.75 16.6542 13.75 14.5832C13.75 13.283 13.0883 12.1374 12.0833 11.4646V3.74984Z" stroke="#828282" style="stroke:#828282;stroke:color(display-p3 0.5098 0.5098 0.5098);stroke-opacity:1;" stroke-width="1.5" stroke-linecap="round" stroke-linejoin="round"/>
<path d="M10 15.4165C10.4602 15.4165 10.8333 15.0434 10.8333 14.5832C10.8333 14.1229 10.4602 13.7498 10 13.7498C9.53976 13.7498 9.16667 14.1229 9.16667 14.5832C9.16667 15.0434 9.53976 15.4165 10 15.4165Z" stroke="#828282" style="stroke:#828282;stroke:color(display-p3 0.5098 0.5098 0.5098);stroke-opacity:1;" stroke-width="1.5" stroke-linecap="round" stroke-linejoin="round"/>
</g>
</g>
</svg>
