<svg width="20" height="20" viewBox="0 0 20 20" fill="none" xmlns="http://www.w3.org/2000/svg">
<path d="M15.2246 4.99935C16.0662 6.80768 15.8746 8.94102 14.9496 10.6743C14.1662 12.0827 13.0412 13.2743 12.0829 14.5827C11.6662 15.166 11.2496 15.791 10.9412 16.466C10.8329 16.691 10.7579 16.9243 10.6746 17.1577C10.5912 17.391 10.5162 17.6243 10.4412 17.8577C10.3662 18.0743 10.2746 18.3327 9.99956 18.3327C9.67456 18.3327 9.58289 17.966 9.51622 17.716C9.31622 17.1077 9.11622 16.5243 8.80789 15.966C8.45789 15.3077 8.01622 14.6993 7.56622 14.1077L15.2246 4.99935ZM7.59956 7.01602L4.84956 10.2827C5.35789 11.3577 6.11622 12.2743 6.84122 13.191C7.01622 13.3993 7.19122 13.616 7.35789 13.841L10.8329 9.72435L10.7996 9.73268C9.58289 10.1493 8.23289 9.53268 7.74956 8.33268C7.68289 8.19102 7.63289 8.02435 7.59956 7.85768C7.55371 7.5818 7.55371 7.30024 7.59956 7.02435V7.01602ZM5.48289 3.84935L5.47456 3.85768C4.12456 5.56602 3.89122 7.94102 4.69956 9.94935L8.02456 5.99935L7.98289 5.95768L5.48289 3.84935ZM11.8496 1.96602L9.16622 5.14102L9.19956 5.13268C10.3162 4.74935 11.5662 5.23268 12.1329 6.24935C12.2579 6.48268 12.3579 6.73268 12.3912 6.98268C12.4412 7.29935 12.4579 7.52435 12.3996 7.83268V7.84102L15.0662 4.67435C14.3692 3.40717 13.2255 2.44472 11.8579 1.97435L11.8496 1.96602ZM8.24122 5.74102L11.4996 1.86602L11.4662 1.85768C10.9829 1.73268 10.4912 1.66602 9.99956 1.66602C8.35789 1.66602 6.80789 2.37435 5.70789 3.59102L5.69122 3.59935L8.24122 5.74102Z" fill="#32475C"/>
</svg>
