<svg width="20" height="20" viewBox="0 0 20 20" fill="none" xmlns="http://www.w3.org/2000/svg">
<g id="Icon">
<path d="M15.8 8C16.9201 8 17.4802 8 17.908 7.78201C18.2843 7.59027 18.5903 7.28431 18.782 6.90798C19 6.48016 19 5.92011 19 4.8V4.2C19 3.0799 19 2.51984 18.782 2.09202C18.5903 1.7157 18.2843 1.40973 17.908 1.21799C17.4802 1 16.9201 1 15.8 1L4.2 1C3.0799 1 2.51984 1 2.09202 1.21799C1.71569 1.40973 1.40973 1.71569 1.21799 2.09202C1 2.51984 1 3.07989 1 4.2L1 4.8C1 5.9201 1 6.48016 1.21799 6.90798C1.40973 7.28431 1.71569 7.59027 2.09202 7.78201C2.51984 8 3.07989 8 4.2 8L15.8 8Z" stroke="black" style="stroke:black;stroke:black;stroke-opacity:1;" stroke-width="1.5" stroke-linecap="round" stroke-linejoin="round"/>
<path d="M15.8 19C16.9201 19 17.4802 19 17.908 18.782C18.2843 18.5903 18.5903 18.2843 18.782 17.908C19 17.4802 19 16.9201 19 15.8V15.2C19 14.0799 19 13.5198 18.782 13.092C18.5903 12.7157 18.2843 12.4097 17.908 12.218C17.4802 12 16.9201 12 15.8 12L4.2 12C3.0799 12 2.51984 12 2.09202 12.218C1.71569 12.4097 1.40973 12.7157 1.21799 13.092C1 13.5198 1 14.0799 1 15.2L1 15.8C1 16.9201 1 17.4802 1.21799 17.908C1.40973 18.2843 1.71569 18.5903 2.09202 18.782C2.51984 19 3.07989 19 4.2 19H15.8Z" stroke="black" style="stroke:black;stroke:black;stroke-opacity:1;" stroke-width="1.5" stroke-linecap="round" stroke-linejoin="round"/>
</g>
</svg>
