<svg width="48" height="47" viewBox="0 0 48 47" fill="none" xmlns="http://www.w3.org/2000/svg">
<g id="Layer_1" clip-path="url(#clip0_1418_1409)">
<path id="Vector" d="M48 23.9325C48 33.7433 42.0746 42.1721 33.5946 45.8648C35.2657 38.7921 34.7807 33.1293 33.5009 28.8018C32.3712 24.9808 30.0342 21.7991 27.0012 19.5887L29.9428 15.0509C30.9178 15.2002 31.9374 14.7825 32.5069 13.9049C33.2781 12.712 32.9335 11.1203 31.7357 10.3523C30.5379 9.58202 28.9419 9.92518 28.1684 11.1178C27.6011 11.9977 27.6386 13.0903 28.1779 13.9143L25.2363 18.4542C21.9644 16.6149 18.0923 15.8073 14.1312 16.3582C10.0388 16.9254 5.20563 18.55 0 22.1913C0.895491 9.78504 11.2856 0 23.9684 0C36.6512 0 48 10.714 48 23.9325Z" fill="url(#paint0_linear_1418_1409)"/>
<path id="Vector_2" d="M29.6946 43.2576C28.8883 46.292 25.6233 47.9166 22.8339 46.4578C20.4127 45.1927 18.894 41.2737 14.2365 38.2811C9.58158 35.291 4.53058 34.99 2.37414 33.3138C2.02957 33.0477 1.73671 32.7466 1.49282 32.4223C0.831771 31.5493 0.534186 30.5013 0.580924 29.4555C0.641833 28.0947 1.28399 26.7362 2.47483 25.7697C7.15788 21.9673 11.5245 20.3869 15.134 19.8851C18.0569 19.479 20.9164 20.0462 23.3563 21.3579C23.9728 21.6895 24.5633 22.0675 25.1212 22.4924C27.3268 24.1661 29.0261 26.5258 29.8582 29.3455C30.8871 32.8258 31.2409 37.4406 29.6941 43.2573L29.6946 43.2576Z" fill="url(#paint1_linear_1418_1409)"/>
<path id="Vector_3" d="M14.8031 27.1464L13.2749 29.5053C12.944 30.0161 12.2611 30.1629 11.7502 29.8346C11.2373 29.5051 11.0899 28.825 11.4208 28.3142L12.949 25.9552C13.2787 25.4464 13.9616 25.2996 14.4745 25.6292C14.7298 25.7933 14.8944 26.0453 14.954 26.3199C15.0135 26.5945 14.968 26.8918 14.8031 27.1461V27.1464Z" fill="white"/>
<path id="Vector_4" d="M25.2063 33.83L23.6781 36.1889C23.3472 36.6997 22.6643 36.8465 22.1534 36.5182C21.6405 36.1887 21.4934 35.5086 21.824 34.9978L23.3522 32.6388C23.6819 32.13 24.3648 31.9832 24.8777 32.3128C25.1333 32.4769 25.2976 32.7289 25.3573 33.0035C25.4167 33.2781 25.3712 33.5754 25.2063 33.8297V33.83Z" fill="white"/>
</g>
<defs>
<linearGradient id="paint0_linear_1418_1409" x1="-6.97457e-08" y1="25.0558" x2="48.0024" y2="24.8876" gradientUnits="userSpaceOnUse">
<stop stop-color="#0F172A"/>
<stop offset="1" stop-color="#0F172A" stop-opacity="0.6"/>
</linearGradient>
<linearGradient id="paint1_linear_1418_1409" x1="0.576172" y1="34.6393" x2="30.7448" y2="34.5274" gradientUnits="userSpaceOnUse">
<stop stop-color="#0F172A"/>
<stop offset="1" stop-color="#0F172A" stop-opacity="0.6"/>
</linearGradient>
<clipPath id="clip0_1418_1409">
<rect width="48" height="47" fill="white"/>
</clipPath>
</defs>
</svg>
