<svg width="20" height="20" viewBox="0 0 20 20" fill="none" xmlns="http://www.w3.org/2000/svg">
<g id="users-02">
<path id="Icon" d="M13.3333 2.8898C14.5681 3.50343 15.4166 4.77762 15.4166 6.25C15.4166 7.72238 14.5681 8.99657 13.3333 9.6102M15 13.972C16.2595 14.5419 17.3937 15.4708 18.3333 16.6667M1.66663 16.6667C3.2887 14.6021 5.49094 13.3333 7.91663 13.3333C10.3423 13.3333 12.5446 14.6021 14.1666 16.6667M11.6666 6.25C11.6666 8.32107 9.98769 10 7.91663 10C5.84556 10 4.16663 8.32107 4.16663 6.25C4.16663 4.17893 5.84556 2.5 7.91663 2.5C9.98769 2.5 11.6666 4.17893 11.6666 6.25Z" stroke="#828282" style="stroke:#828282;stroke:color(display-p3 0.5098 0.5098 0.5098);stroke-opacity:1;" stroke-width="1.5" stroke-linecap="round" stroke-linejoin="round"/>
</g>
</svg>
