<svg width="20" height="20" viewBox="0 0 20 20" fill="none" xmlns="http://www.w3.org/2000/svg">
<g id="settings-01" clip-path="url(#clip0_175_635)">
<g id="Icon">
<path d="M10.0001 12.4993C11.3808 12.4993 12.5001 11.3801 12.5001 9.99935C12.5001 8.61864 11.3808 7.49935 10.0001 7.49935C8.61937 7.49935 7.50008 8.61864 7.50008 9.99935C7.50008 11.3801 8.61937 12.4993 10.0001 12.4993Z" stroke="#828282" style="stroke:#828282;stroke:color(display-p3 0.5098 0.5098 0.5098);stroke-opacity:1;" stroke-width="1.5" stroke-linecap="round" stroke-linejoin="round"/>
<path d="M15.6061 12.2721C15.5053 12.5006 15.4752 12.754 15.5198 12.9998C15.5643 13.2455 15.6815 13.4723 15.8561 13.6509L15.9016 13.6963C16.0425 13.837 16.1542 14.0041 16.2305 14.1881C16.3067 14.372 16.346 14.5692 16.346 14.7683C16.346 14.9674 16.3067 15.1646 16.2305 15.3485C16.1542 15.5324 16.0425 15.6995 15.9016 15.8403C15.7609 15.9811 15.5938 16.0929 15.4098 16.1691C15.2259 16.2454 15.0287 16.2846 14.8296 16.2846C14.6305 16.2846 14.4334 16.2454 14.2494 16.1691C14.0655 16.0929 13.8984 15.9811 13.7577 15.8403L13.7122 15.7948C13.5337 15.6202 13.3069 15.503 13.0611 15.4584C12.8154 15.4139 12.5619 15.444 12.3334 15.5448C12.1093 15.6408 11.9183 15.8003 11.7836 16.0035C11.649 16.2068 11.5768 16.445 11.5758 16.6887V16.8175C11.5758 17.2194 11.4162 17.6048 11.1321 17.8889C10.8479 18.1731 10.4625 18.3327 10.0607 18.3327C9.65884 18.3327 9.27346 18.1731 8.98931 17.8889C8.70517 17.6048 8.54554 17.2194 8.54554 16.8175V16.7493C8.53967 16.4986 8.45851 16.2554 8.31259 16.0514C8.16667 15.8474 7.96276 15.692 7.72735 15.6054C7.49886 15.5046 7.24539 15.4745 6.99964 15.519C6.75388 15.5636 6.52711 15.6808 6.34857 15.8554L6.30311 15.9009C6.1624 16.0417 5.99529 16.1535 5.81135 16.2297C5.62742 16.306 5.43026 16.3452 5.23114 16.3452C5.03203 16.3452 4.83487 16.306 4.65093 16.2297C4.46699 16.1535 4.29989 16.0417 4.15917 15.9009C4.0183 15.7601 3.90654 15.593 3.83029 15.4091C3.75405 15.2252 3.7148 15.028 3.7148 14.8289C3.7148 14.6298 3.75405 14.4326 3.83029 14.2487C3.90654 14.0647 4.0183 13.8976 4.15917 13.7569L4.20463 13.7115C4.37928 13.5329 4.49643 13.3062 4.54099 13.0604C4.58555 12.8146 4.55547 12.5612 4.45463 12.3327C4.35859 12.1086 4.19914 11.9175 3.99589 11.7829C3.79264 11.6483 3.55447 11.5761 3.31069 11.5751H3.1819C2.78006 11.5751 2.39467 11.4155 2.11053 11.1313C1.82638 10.8472 1.66675 10.4618 1.66675 10.06C1.66675 9.65811 1.82638 9.27273 2.11053 8.98858C2.39467 8.70444 2.78006 8.5448 3.1819 8.5448H3.25008C3.50083 8.53894 3.74402 8.45777 3.94804 8.31186C4.15205 8.16594 4.30744 7.96203 4.39402 7.72662C4.49487 7.49813 4.52495 7.24466 4.48039 6.9989C4.43583 6.75315 4.31867 6.52638 4.14402 6.34783L4.09857 6.30238C3.95769 6.16166 3.84594 5.99456 3.76969 5.81062C3.69344 5.62669 3.65419 5.42952 3.65419 5.23041C3.65419 5.0313 3.69344 4.83413 3.76969 4.6502C3.84594 4.46626 3.95769 4.29916 4.09857 4.15844C4.23928 4.01757 4.40639 3.90581 4.59032 3.82956C4.77426 3.75331 4.97142 3.71407 5.17054 3.71407C5.36965 3.71407 5.56681 3.75331 5.75075 3.82956C5.93469 3.90581 6.10179 4.01757 6.24251 4.15844L6.28796 4.20389C6.46651 4.37854 6.69328 4.4957 6.93903 4.54026C7.18478 4.58482 7.43825 4.55474 7.66675 4.45389H7.72735C7.95142 4.35786 8.14252 4.19841 8.27712 3.99516C8.41172 3.79191 8.48396 3.55373 8.48493 3.30996V3.18117C8.48493 2.77932 8.64456 2.39394 8.92871 2.10979C9.21285 1.82565 9.59824 1.66602 10.0001 1.66602C10.4019 1.66602 10.7873 1.82565 11.0715 2.10979C11.3556 2.39394 11.5152 2.77932 11.5152 3.18117V3.24935C11.5162 3.49313 11.5884 3.7313 11.723 3.93455C11.8576 4.1378 12.0487 4.29726 12.2728 4.39329C12.5013 4.49413 12.7548 4.52422 13.0005 4.47966C13.2463 4.4351 13.4731 4.31794 13.6516 4.14329L13.6971 4.09783C13.8378 3.95696 14.0049 3.8452 14.1888 3.76896C14.3727 3.69271 14.5699 3.65346 14.769 3.65346C14.9681 3.65346 15.1653 3.69271 15.3492 3.76896C15.5332 3.8452 15.7003 3.95696 15.841 4.09783C15.9819 4.23855 16.0936 4.40565 16.1699 4.58959C16.2461 4.77353 16.2854 4.97069 16.2854 5.1698C16.2854 5.36892 16.2461 5.56608 16.1699 5.75002C16.0936 5.93395 15.9819 6.10106 15.841 6.24177L15.7955 6.28723C15.6209 6.46577 15.5037 6.69254 15.4592 6.9383C15.4146 7.18405 15.4447 7.43752 15.5455 7.66602V7.72662C15.6416 7.95069 15.801 8.14179 16.0043 8.27639C16.2075 8.41099 16.4457 8.48323 16.6895 8.4842H16.8183C17.2201 8.4842 17.6055 8.64383 17.8896 8.92798C18.1738 9.21212 18.3334 9.59751 18.3334 9.99935C18.3334 10.4012 18.1738 10.7866 17.8896 11.0707C17.6055 11.3549 17.2201 11.5145 16.8183 11.5145H16.7501C16.5063 11.5155 16.2681 11.5877 16.0649 11.7223C15.8616 11.8569 15.7022 12.048 15.6061 12.2721Z" stroke="#828282" style="stroke:#828282;stroke:color(display-p3 0.5098 0.5098 0.5098);stroke-opacity:1;" stroke-width="1.5" stroke-linecap="round" stroke-linejoin="round"/>
</g>
</g>
<defs>
<clipPath id="clip0_175_635">
<rect width="20" height="20" fill="white" style="fill:white;fill:white;fill-opacity:1;"/>
</clipPath>
</defs>
</svg>
