<svg width="21" height="20" viewBox="0 0 21 20" fill="inherit" xmlns="http://www.w3.org/2000/svg">
<path d="M17.4082 6.90791L13.8332 10.4829L12.7498 9.40791L11.5748 10.5912L13.8248 12.8412L18.5915 8.09125L17.4082 6.90791ZM3.83317 6.66625C3.82291 7.10679 3.90211 7.54484 4.066 7.9539C4.22988 8.36296 4.47503 8.73452 4.78663 9.04612C5.09823 9.35772 5.46979 9.60287 5.87885 9.76676C6.28791 9.93064 6.72596 10.0098 7.1665 9.99958C7.60705 10.0098 8.0451 9.93064 8.45416 9.76676C8.86321 9.60287 9.23478 9.35772 9.54638 9.04612C9.85797 8.73452 10.1031 8.36296 10.267 7.9539C10.4309 7.54484 10.5101 7.10679 10.4998 6.66625C10.5101 6.2257 10.4309 5.78765 10.267 5.37859C10.1031 4.96954 9.85797 4.59797 9.54638 4.28638C9.23478 3.97478 8.86321 3.72962 8.45416 3.56574C8.0451 3.40186 7.60705 3.32265 7.1665 3.33292C6.72596 3.32265 6.28791 3.40186 5.87885 3.56574C5.46979 3.72962 5.09823 3.97478 4.78663 4.28638C4.47503 4.59797 4.22988 4.96954 4.066 5.37859C3.90211 5.78765 3.82291 6.2257 3.83317 6.66625ZM8.83317 6.66625C8.84389 6.88796 8.80812 7.10946 8.72815 7.31652C8.64818 7.52358 8.52579 7.71163 8.36884 7.86858C8.21188 8.02554 8.02384 8.14793 7.81677 8.22789C7.60971 8.30786 7.38821 8.34363 7.1665 8.33291C6.9448 8.34363 6.7233 8.30786 6.51623 8.22789C6.30917 8.14793 6.12112 8.02554 5.96417 7.86858C5.80721 7.71163 5.68482 7.52358 5.60486 7.31652C5.52489 7.10946 5.48912 6.88796 5.49984 6.66625C5.48912 6.44454 5.52489 6.22304 5.60486 6.01598C5.68482 5.80892 5.80721 5.62087 5.96417 5.46391C6.12112 5.30696 6.30917 5.18457 6.51623 5.1046C6.7233 5.02464 6.9448 4.98886 7.1665 4.99958C7.38821 4.98886 7.60971 5.02464 7.81677 5.1046C8.02384 5.18457 8.21188 5.30696 8.36884 5.46391C8.52579 5.62087 8.64818 5.80892 8.72815 6.01598C8.80812 6.22304 8.84389 6.44454 8.83317 6.66625ZM3.83317 14.9996C3.83317 14.3365 4.09656 13.7007 4.5654 13.2318C5.03424 12.763 5.67013 12.4996 6.33317 12.4996H7.99984C8.66288 12.4996 9.29876 12.763 9.7676 13.2318C10.2364 13.7007 10.4998 14.3365 10.4998 14.9996V15.8329H12.1665V14.9996C12.1665 14.4524 12.0587 13.9106 11.8493 13.4051C11.6399 12.8995 11.333 12.4402 10.9461 12.0533C10.5592 11.6664 10.0999 11.3595 9.59435 11.1501C9.08883 10.9407 8.54701 10.8329 7.99984 10.8329H6.33317C5.2281 10.8329 4.16829 11.2719 3.38689 12.0533C2.60549 12.8347 2.1665 13.8945 2.1665 14.9996V15.8329H3.83317V14.9996Z" fill="inherit"/>
</svg>
